<?xml version="1.0" encoding="UTF-8" standalone="no"?>
<!-- Created with Inkscape (http://www.inkscape.org/) -->

<svg
   xmlns:dc="http://purl.org/dc/elements/1.1/"
   xmlns:cc="http://creativecommons.org/ns#"
   xmlns:rdf="http://www.w3.org/1999/02/22-rdf-syntax-ns#"
   xmlns:svg="http://www.w3.org/2000/svg"
   xmlns="http://www.w3.org/2000/svg"
   xmlns:sodipodi="http://sodipodi.sourceforge.net/DTD/sodipodi-0.dtd"
   xmlns:inkscape="http://www.inkscape.org/namespaces/inkscape"
   width="210mm"
   height="210mm"
   viewBox="0 0 210 210"
   version="1.1"
   id="svg8"
   shape-rendering="crispEdges"
   inkscape:version="0.92.4 (5da689c313, 2019-01-14)"
   sodipodi:docname="Space.svg">
  <defs
     id="defs2" />
  <sodipodi:namedview
     id="base"
     pagecolor="#000000"
     bordercolor="#666666"
     borderopacity="1.0"
     inkscape:pageopacity="1"
     inkscape:pageshadow="2"
     inkscape:zoom="0.83913688"
     inkscape:cx="561.98597"
     inkscape:cy="454.9467"
     inkscape:document-units="mm"
     inkscape:current-layer="layer1"
     showgrid="false"
     inkscape:window-width="1920"
     inkscape:window-height="1017"
     inkscape:window-x="1796"
     inkscape:window-y="-8"
     inkscape:window-maximized="1" />
  <metadata
     id="metadata5">
    <rdf:RDF>
      <cc:Work
         rdf:about="">
        <dc:format>image/svg+xml</dc:format>
        <dc:type
           rdf:resource="http://purl.org/dc/dcmitype/StillImage" />
        <dc:title></dc:title>
      </cc:Work>
    </rdf:RDF>
  </metadata>
  <g
     inkscape:label="Layer 1"
     inkscape:groupmode="layer"
     id="layer1"
     transform="translate(0,-87)">
    <path
       sodipodi:type="star"
       style="opacity:1;fill:#ffdd55;fill-opacity:1;stroke-width:0.26458332"
       id="path823"
       sodipodi:sides="5"
       sodipodi:cx="68.223831"
       sodipodi:cy="123.2076"
       sodipodi:r1="1.6758645"
       sodipodi:r2="0.83793223"
       sodipodi:arg1="1.6373645"
       sodipodi:arg2="2.265683"
       inkscape:flatsided="false"
       inkscape:rounded="0"
       inkscape:randomized="0"
       d="m 68.112354,124.87976 -0.425049,-1.02852 -1.088234,-0.23293 0.846828,-0.72208 -0.114748,-1.10695 0.948419,0.58225 1.017315,-0.4512 -0.260674,1.08192 0.743484,0.8281 -1.109524,0.0864 z"
       inkscape:transform-center-x="0.0344491"
       inkscape:transform-center-y="0.1269137" />
    <path
       sodipodi:type="star"
       style="opacity:1;fill:#ffffff;fill-opacity:1;stroke-width:0.26458332"
       id="path825"
       sodipodi:sides="5"
       sodipodi:cx="98.099625"
       sodipodi:cy="125.77156"
       sodipodi:r1="1.231302"
       sodipodi:r2="0.61565101"
       sodipodi:arg1="1.4801364"
       sodipodi:arg2="2.108455"
       inkscape:flatsided="false"
       inkscape:rounded="0"
       inkscape:randomized="0"
       d="m 98.211102,126.99781 -0.426769,-0.69746 -0.816489,-0.0438 0.531442,-0.6214 -0.210617,-0.79008 0.755217,0.31341 0.686321,-0.44446 -0.06469,0.8151 0.634786,0.51539 -0.795199,0.19036 z"
       inkscape:transform-center-x="-0.034447004"
       inkscape:transform-center-y="0.084333297" />
    <path
       sodipodi:type="star"
       style="opacity:1;fill:#ffffff;fill-opacity:1;stroke-width:0.26458332"
       id="path827"
       sodipodi:sides="5"
       sodipodi:cx="86.728981"
       sodipodi:cy="143.71935"
       sodipodi:r1="2.0464427"
       sodipodi:r2="1.0232214"
       sodipodi:arg1="1.0584069"
       sodipodi:arg2="1.6867254"
       inkscape:flatsided="false"
       inkscape:rounded="0"
       inkscape:randomized="0"
       d="m 87.732273,145.50297 -1.121648,-0.76727 -1.267942,0.489 0.383115,-1.30385 -0.856888,-1.05477 1.358425,-0.0386 0.738357,-1.14089 0.456438,1.28003 1.313218,0.34966 -1.076331,0.82965 z"
       inkscape:transform-center-x="-0.073146683"
       inkscape:transform-center-y="-0.12453926" />
    <path
       sodipodi:type="star"
       style="opacity:1;fill:#ffffff;fill-opacity:1;stroke-width:0.26458332"
       id="path829"
       sodipodi:sides="5"
       sodipodi:cx="35.226681"
       sodipodi:cy="98.348259"
       sodipodi:r1="2.8552005"
       sodipodi:r2="1.4276001"
       sodipodi:arg1="0.89605538"
       sodipodi:arg2="1.5243739"
       inkscape:flatsided="false"
       inkscape:rounded="0"
       inkscape:randomized="0"
       d="m 37.01031,100.5778 -1.71738,-0.803479 -1.635493,0.959239 0.23345,-1.881617 -1.417682,-1.259026 1.861661,-0.359426 0.759317,-1.737357 0.91712,1.659476 1.886965,0.185281 -1.29485,1.385039 z"
       inkscape:transform-center-x="0.040944481"
       inkscape:transform-center-y="-0.2334137" />
    <path
       sodipodi:type="star"
       style="opacity:1;fill:#ffffff;fill-opacity:1;stroke-width:0.26458332"
       id="path831"
       sodipodi:sides="5"
       sodipodi:cx="192.40904"
       sodipodi:cy="110.61071"
       sodipodi:r1="2.411613"
       sodipodi:r2="1.2058065"
       sodipodi:arg1="1.0471976"
       sodipodi:arg2="1.6755161"
       inkscape:flatsided="false"
       inkscape:rounded="0"
       inkscape:randomized="0"
       d="m 193.61485,112.69923 -1.33185,-0.88932 -1.48764,0.59298 0.43423,-1.54148 -1.02367,-1.23159 1.60022,-0.0634 0.85498,-1.35414 0.55476,1.50231 1.55208,0.39469 -1.25736,0.99185 z"
       inkscape:transform-center-x="-0.077895258"
       inkscape:transform-center-y="-0.1549422" />
    <path
       sodipodi:type="star"
       style="opacity:1;fill:#ffffff;fill-opacity:1;stroke-width:0.26458332"
       id="path833"
       sodipodi:sides="5"
       sodipodi:cx="185.27454"
       sodipodi:cy="149.62761"
       sodipodi:r1="1.1368454"
       sodipodi:r2="0.56842262"
       sodipodi:arg1="1.3734008"
       sodipodi:arg2="2.0017193"
       inkscape:flatsided="false"
       inkscape:rounded="0"
       inkscape:randomized="0"
       d="m 185.49749,150.74238 -0.46039,-0.59831 -0.75388,0.0401 0.42676,-0.62274 -0.27106,-0.7046 0.72414,0.21344 0.58635,-0.47554 0.0208,0.75466 0.63345,0.4107 -0.71129,0.25297 z"
       inkscape:transform-center-x="-0.068894146"
       inkscape:transform-center-y="0.040925681" />
    <path
       sodipodi:type="star"
       style="opacity:1;fill:#ffffff;fill-opacity:1;stroke-width:0.26458332"
       id="path835"
       sodipodi:sides="5"
       sodipodi:cx="180.36954"
       sodipodi:cy="163.00484"
       sodipodi:r1="1.5765208"
       sodipodi:r2="0.78826034"
       sodipodi:arg1="1.4288993"
       sodipodi:arg2="2.0572178"
       inkscape:flatsided="false"
       inkscape:rounded="0"
       inkscape:randomized="0"
       d="m 180.59249,164.56551 -0.59144,-0.86384 -1.04691,-0.003 0.6388,-0.82943 -0.32112,-0.99645 0.98624,0.35123 0.84845,-0.61333 -0.0293,1.04651 0.84549,0.61739 -1.00432,0.29555 z"
       inkscape:transform-center-x="-0.068894208"
       inkscape:transform-center-y="0.083505879" />
    <path
       sodipodi:type="star"
       style="opacity:1;fill:#ffffff;fill-opacity:1;stroke-width:0.26458332"
       id="path837"
       sodipodi:sides="5"
       sodipodi:cx="148.71011"
       sodipodi:cy="176.1591"
       sodipodi:r1="3.0324979"
       sodipodi:r2="1.5162491"
       sodipodi:arg1="1.8692953"
       sodipodi:arg2="2.4976138"
       inkscape:flatsided="false"
       inkscape:rounded="0"
       inkscape:randomized="0"
       d="m 147.8183,179.0575 -0.32075,-1.98807 -1.81956,-0.86284 1.79165,-0.9194 0.25833,-1.99714 1.42805,1.41985 1.97922,-0.37145 -0.90906,1.79691 0.96489,1.76756 -1.98989,-0.30929 z"
       inkscape:transform-center-x="0.2755878"
       inkscape:transform-center-y="0.014673473" />
    <path
       sodipodi:type="star"
       style="opacity:1;fill:#ffffff;fill-opacity:1;stroke-width:0.26458332"
       id="path839"
       sodipodi:sides="5"
       sodipodi:cx="107.46368"
       sodipodi:cy="191.54291"
       sodipodi:r1="2.9995353"
       sodipodi:r2="1.4997675"
       sodipodi:arg1="-2.3036114"
       sodipodi:arg2="-1.6752929"
       inkscape:flatsided="false"
       inkscape:rounded="0"
       inkscape:randomized="0"
       d="m 105.45709,189.31337 1.85015,0.73795 1.65678,-1.10575 -0.1301,1.98763 1.56361,1.234 -1.93056,0.49048 -0.69042,1.8684 -1.06305,-1.6845 -1.99031,-0.0793 1.27356,-1.53156 z"
       inkscape:transform-center-x="-0.096681107"
       inkscape:transform-center-y="0.1929159" />
    <path
       sodipodi:type="star"
       style="opacity:1;fill:#ffffff;fill-opacity:1;stroke-width:0.26458332"
       id="path841"
       sodipodi:sides="5"
       sodipodi:cx="120.61795"
       sodipodi:cy="174.82137"
       sodipodi:r1="3.1293044"
       sodipodi:r2="1.5646521"
       sodipodi:arg1="-1.6421038"
       sodipodi:arg2="-1.0137853"
       inkscape:flatsided="false"
       inkscape:rounded="0"
       inkscape:randomized="0"
       d="m 120.395,171.70001 1.05011,1.79322 2.07253,0.15154 -1.38095,1.55285 0.49632,2.01792 -1.90358,-0.8335 -1.76579,1.0956 0.20447,-2.06798 -1.58764,-1.3408 2.02995,-0.44458 z"
       inkscape:transform-center-x="0.068898"
       inkscape:transform-center-y="-0.23253923" />
    <path
       sodipodi:type="star"
       style="opacity:1;fill:#ffd42a;fill-opacity:1;stroke-width:0.26458332"
       id="path843"
       sodipodi:sides="5"
       sodipodi:cx="105.01119"
       sodipodi:cy="169.69344"
       sodipodi:r1="4.823226"
       sodipodi:r2="2.411613"
       sodipodi:arg1="-2.1587989"
       sodipodi:arg2="-1.5304804"
       inkscape:flatsided="false"
       inkscape:rounded="0"
       inkscape:randomized="0"
       d="m 102.33575,165.68027 2.77264,1.60351 2.89279,-1.37498 -0.66823,3.13245 2.2016,2.32632 -3.18564,0.33245 -1.53212,2.81272 -1.30059,-2.92699 -3.14851,-0.58795 2.38182,-2.14143 z"
       inkscape:transform-center-x="0.060074273"
       inkscape:transform-center-y="0.40306902" />
    <path
       sodipodi:type="star"
       style="opacity:1;fill:#ffffff;fill-opacity:1;stroke-width:0.26458332"
       id="path847"
       sodipodi:sides="5"
       sodipodi:cx="45.08849"
       sodipodi:cy="222.27292"
       sodipodi:r1="4.3916788"
       sodipodi:r2="2.1958394"
       sodipodi:arg1="1.9379702"
       sodipodi:arg2="2.5662887"
       inkscape:flatsided="false"
       inkscape:rounded="0"
       inkscape:randomized="0"
       d="m 43.511969,226.37187 -0.265848,-2.90422 -2.54314,-1.42745 2.679926,-1.15028 0.57171,-2.85978 1.922133,2.1933 2.896477,-0.33999 -1.491983,2.50583 1.218411,2.64965 -2.844229,-0.64462 z"
       inkscape:transform-center-x="0.35038646"
       inkscape:transform-center-y="-0.071914252" />
    <path
       sodipodi:type="star"
       style="opacity:1;fill:#ffffff;fill-opacity:1;stroke-width:0.26458332"
       id="path849"
       sodipodi:sides="5"
       sodipodi:cx="39.413017"
       sodipodi:cy="157.63557"
       sodipodi:r1="5.5872035"
       sodipodi:r2="2.7936018"
       sodipodi:arg1="1.8568478"
       sodipodi:arg2="2.4851663"
       inkscape:flatsided="false"
       inkscape:rounded="0"
       inkscape:randomized="0"
       d="m 37.836496,162.99574 -0.636509,-3.65526 -3.371966,-1.54788 3.27967,-1.7349 0.430129,-3.68525 2.663458,2.58304 3.6378,-0.72973 -1.633562,3.3313 1.818154,3.23426 -3.673054,-0.52418 z"
       inkscape:transform-center-x="0.48717217"
       inkscape:transform-center-y="0.048520926" />
    <path
       sodipodi:type="star"
       style="opacity:1;fill:#ffffff;fill-opacity:1;stroke-width:0.26458332"
       id="path851"
       sodipodi:sides="5"
       sodipodi:cx="53.601707"
       sodipodi:cy="257.27167"
       sodipodi:r1="3.3517289"
       sodipodi:r2="1.6758645"
       sodipodi:arg1="0.71883"
       sodipodi:arg2="1.3471485"
       inkscape:flatsided="false"
       inkscape:rounded="0"
       inkscape:randomized="0"
       d="m 56.124141,259.4788 -2.150747,-0.57301 -1.691316,1.44689 -0.11966,-2.22254 -1.89872,-1.16143 2.076793,-0.80061 0.517843,-2.16469 1.403188,1.72775 2.218765,-0.17643 -1.209575,1.86842 z"
       inkscape:transform-center-x="0.22971569"
       inkscape:transform-center-y="-0.093620656" />
    <path
       sodipodi:type="star"
       style="opacity:1;fill:#ffffff;fill-opacity:1;stroke-width:0.26458332"
       id="path853"
       sodipodi:sides="5"
       sodipodi:cx="179.09274"
       sodipodi:cy="262.00125"
       sodipodi:r1="4.7295618"
       sodipodi:r2="2.3647811"
       sodipodi:arg1="0.64350111"
       sodipodi:arg2="1.2718196"
       inkscape:flatsided="false"
       inkscape:rounded="0"
       inkscape:randomized="0"
       d="m 182.87639,264.83899 -3.08712,-0.57786 -2.22616,2.21549 -0.4044,-3.11459 -2.79498,-1.43258 2.83719,-1.34707 0.49877,-3.10088 2.15787,2.28206 3.10324,-0.48386 -1.50355,2.75745 z"
       inkscape:transform-center-x="0.43047906"
       inkscape:transform-center-y="-0.022190978" />
    <path
       sodipodi:type="star"
       style="opacity:1;fill:#ffffff;fill-opacity:1;stroke-width:0.26458332"
       id="path855"
       sodipodi:sides="5"
       sodipodi:cx="117.60844"
       sodipodi:cy="255.69516"
       sodipodi:r1="5.0448661"
       sodipodi:r2="2.522433"
       sodipodi:arg1="0"
       sodipodi:arg2="0.62831853"
       inkscape:flatsided="false"
       inkscape:rounded="0"
       inkscape:randomized="0"
       d="m 122.6533,255.69516 -3.00417,1.48265 -0.48174,3.3153 -2.33843,-2.39897 -3.30191,0.56632 1.55895,-2.9653 -1.55895,-2.9653 3.30191,0.56632 2.33843,-2.39897 0.48174,3.3153 z"
       inkscape:transform-center-x="-0.48174038"
       inkscape:transform-center-y="-2.1252933e-06" />
    <path
       sodipodi:type="star"
       style="opacity:1;fill:#ffe680;fill-opacity:1;stroke-width:0.26458332"
       id="path859"
       sodipodi:sides="5"
       sodipodi:cx="167.74179"
       sodipodi:cy="212.49849"
       sodipodi:r1="4.2302489"
       sodipodi:r2="2.1151245"
       sodipodi:arg1="-1.1071487"
       sodipodi:arg2="-0.47883019"
       inkscape:flatsided="false"
       inkscape:rounded="0"
       inkscape:randomized="0"
       d="m 169.63362,208.71484 -0.0146,2.80912 2.30582,1.60455 -2.67614,0.8542 -0.81347,2.6888 -1.63937,-2.2812 -2.80858,0.0572 1.66296,-2.26406 -0.92233,-2.65344 2.66713,0.88194 z"
       inkscape:transform-center-x="-0.21428728"
       inkscape:transform-center-y="0.19468539" />
    <path
       sodipodi:type="star"
       style="opacity:1;fill:#ffffff;fill-opacity:1;stroke-width:0.26458332"
       id="path863"
       sodipodi:sides="5"
       sodipodi:cx="184.76823"
       sodipodi:cy="178.13034"
       sodipodi:r1="3.9883168"
       sodipodi:r2="1.9941584"
       sodipodi:arg1="-1.2490458"
       sodipodi:arg2="-0.62072724"
       inkscape:flatsided="false"
       inkscape:rounded="0"
       inkscape:randomized="0"
       d="m 186.02945,174.34669 0.36094,2.62379 2.36605,1.19014 -2.38384,1.15407 -0.40074,2.61801 -1.83423,-1.91053 -2.61371,0.42788 1.25021,-2.33485 -1.21462,-2.35356 2.60691,0.46752 z"
       inkscape:transform-center-x="-0.37193913"
       inkscape:transform-center-y="0.0093547048" />
    <path
       sodipodi:type="star"
       style="opacity:1;fill:#ffffff;fill-opacity:1;stroke-width:0.26458332"
       id="path865"
       sodipodi:sides="5"
       sodipodi:cx="148.82355"
       sodipodi:cy="129.25819"
       sodipodi:r1="1.3000323"
       sodipodi:r2="0.65001613"
       sodipodi:arg1="1.3258177"
       sodipodi:arg2="1.9541362"
       inkscape:flatsided="false"
       inkscape:rounded="0"
       inkscape:randomized="0"
       d="m 149.13885,130.51941 -0.55842,-0.65838 -0.85894,0.0868 0.4536,-0.73454 -0.34795,-0.79008 0.83876,0.20441 0.64389,-0.57507 0.0648,0.86087 0.7459,0.43467 -0.79872,0.32764 z"
       inkscape:transform-center-x="-0.097432462"
       inkscape:transform-center-y="0.02776937" />
    <path
       sodipodi:type="star"
       style="opacity:1;fill:#ffff00;fill-opacity:1;stroke-width:0.26458332"
       id="path867"
       sodipodi:sides="5"
       sodipodi:cx="56.754745"
       sodipodi:cy="175.60791"
       sodipodi:r1="2.5420632"
       sodipodi:r2="1.2710317"
       sodipodi:arg1="0.12435499"
       sodipodi:arg2="0.75267353"
       inkscape:flatsided="false"
       inkscape:rounded="0"
       inkscape:randomized="0"
       d="m 59.277179,175.92321 -1.594753,0.55357 -0.448078,1.62754 -1.019276,-1.34564 -1.686349,0.0768 0.964806,-1.38521 -0.594144,-1.58009 1.615559,0.48953 1.319148,-1.05333 0.03366,1.68776 z"
       inkscape:transform-center-x="-0.14820465"
       inkscape:transform-center-y="0.097433221" />
    <path
       sodipodi:type="star"
       style="opacity:1;fill:#ffff00;fill-opacity:1;stroke-width:0.26458332"
       id="path869"
       sodipodi:sides="5"
       sodipodi:cx="5.6754746"
       sodipodi:cy="141.23976"
       sodipodi:r1="3.8098342"
       sodipodi:r2="1.9049172"
       sodipodi:arg1="1.1441688"
       sodipodi:arg2="1.7724874"
       inkscape:flatsided="false"
       inkscape:rounded="0"
       inkscape:randomized="0"
       d="m 7.2519954,144.70811 -1.958126,-1.60205 -2.4298155,0.70484 0.9185385,-2.35735 -1.4211921,-2.09308 2.525814,0.14512 1.5514705,-1.99843 0.6425004,2.44703 2.3800536,0.85799 -2.128727,1.36723 z"
       inkscape:transform-center-x="-0.23584489"
       inkscape:transform-center-y="-0.13213096" />
    <path
       sodipodi:type="star"
       style="opacity:1;fill:#ffff00;fill-opacity:1;stroke-width:0.26458332"
       id="path871"
       sodipodi:sides="5"
       sodipodi:cx="123.59922"
       sodipodi:cy="134.93369"
       sodipodi:r1="2.1151245"
       sodipodi:r2="1.0575624"
       sodipodi:arg1="1.1071487"
       sodipodi:arg2="1.7354672"
       inkscape:flatsided="false"
       inkscape:rounded="0"
       inkscape:randomized="0"
       d="m 124.54513,136.82551 -1.11927,-0.84857 -1.33357,0.44097 0.46116,-1.32672 -0.83148,-1.13203 1.40429,0.0286 0.81969,-1.1406 0.40673,1.3444 1.33808,0.42711 -1.15292,0.80227 z"
       inkscape:transform-center-x="-0.10714314"
       inkscape:transform-center-y="-0.097344092" />
    <path
       sodipodi:type="star"
       style="opacity:1;fill:#ffff00;fill-opacity:1;stroke-width:0.26458332"
       id="path873"
       sodipodi:sides="5"
       sodipodi:cx="170.89485"
       sodipodi:cy="168.98653"
       sodipodi:r1="2.2736907"
       sodipodi:r2="1.1368454"
       sodipodi:arg1="-0.5880026"
       sodipodi:arg2="0.040315927"
       inkscape:flatsided="false"
       inkscape:rounded="0"
       inkscape:randomized="0"
       d="m 172.78668,167.72531 -0.75591,1.30704 0.64818,1.36367 -1.47666,-0.31501 -1.09663,1.03785 -0.15672,-1.50173 -1.32593,-0.72224 1.37979,-0.61311 0.27717,-1.48422 1.00948,1.1228 z"
       inkscape:transform-center-x="0.19001087"
       inkscape:transform-center-y="-0.028319006" />
    <path
       sodipodi:type="star"
       style="opacity:1;fill:#ffff00;fill-opacity:1;stroke-width:0.26458332"
       id="path875"
       sodipodi:sides="5"
       sodipodi:cx="134.31956"
       sodipodi:cy="103.71857"
       sodipodi:r1="2.462604"
       sodipodi:r2="1.231302"
       sodipodi:arg1="-2.2655346"
       sodipodi:arg2="-1.6372161"
       inkscape:flatsided="false"
       inkscape:rounded="0"
       inkscape:randomized="0"
       d="m 132.74304,101.82674 1.4948,0.66324 1.39379,-0.85538 -0.16886,1.62659 1.24421,1.06124 -1.59915,0.34205 -0.62482,1.51126 -0.81948,-1.41519 -1.63037,-0.12723 1.0927,-1.21668 z"
       inkscape:transform-center-x="-0.050505682"
       inkscape:transform-center-y="0.18660367" />
    <path
       sodipodi:type="star"
       style="opacity:1;fill:#ffff00;fill-opacity:1;stroke-width:0.26458332"
       id="path877"
       sodipodi:sides="5"
       sodipodi:cx="151.97659"
       sodipodi:cy="244.65952"
       sodipodi:r1="2.6000645"
       sodipodi:r2="1.3000323"
       sodipodi:arg1="1.815775"
       sodipodi:arg2="2.4440935"
       inkscape:flatsided="false"
       inkscape:rounded="0"
       inkscape:randomized="0"
       d="m 151.34598,247.18195 -0.3658,-1.68742 -1.59743,-0.65528 1.49179,-0.86934 0.12958,-1.72175 1.28778,1.15014 1.67751,-0.40881 -0.69589,1.58016 0.90718,1.46908 -1.71787,-0.17354 z"
       inkscape:transform-center-x="0.19487059"
       inkscape:transform-center-y="0.055537819" />
    <path
       sodipodi:type="star"
       style="opacity:1;fill:#ffff00;fill-opacity:1;stroke-width:0.26458332"
       id="path879"
       sodipodi:sides="5"
       sodipodi:cx="76.934212"
       sodipodi:cy="274.92871"
       sodipodi:r1="2.5420632"
       sodipodi:r2="1.2710317"
       sodipodi:arg1="1.6951513"
       sodipodi:arg2="2.3234699"
       inkscape:flatsided="false"
       inkscape:rounded="0"
       inkscape:randomized="0"
       d="m 76.618908,277.45114 -0.553564,-1.59475 -1.627543,-0.44808 1.34564,-1.01927 -0.07679,-1.68635 1.385215,0.9648 1.580083,-0.59414 -0.48953,1.61556 1.053337,1.31915 -1.687761,0.0337 z"
       inkscape:transform-center-x="0.097435307"
       inkscape:transform-center-y="0.148203" />
    <path
       sodipodi:type="star"
       style="opacity:1;fill:#ffff00;fill-opacity:1;stroke-width:0.26458332"
       id="path881"
       sodipodi:sides="5"
       sodipodi:cx="18.602943"
       sodipodi:cy="197.36389"
       sodipodi:r1="3.5252075"
       sodipodi:r2="1.7626036"
       sodipodi:arg1="2.677945"
       sodipodi:arg2="3.3062636"
       inkscape:flatsided="false"
       inkscape:rounded="0"
       inkscape:randomized="0"
       d="m 15.449902,198.94041 1.414282,-1.86546 -0.734944,-2.22261 2.211195,0.76861 1.886717,-1.3858 -0.04769,2.34048 1.900999,1.36614 -2.240668,0.6779 -0.711835,2.23011 -1.337121,-1.92152 z"
       inkscape:transform-center-x="-0.16223891"
       inkscape:transform-center-y="0.1785731" />
    <path
       sodipodi:type="star"
       style="opacity:1;fill:#ffff00;fill-opacity:1;stroke-width:0.26458332"
       id="path883"
       sodipodi:sides="5"
       sodipodi:cx="82.609688"
       sodipodi:cy="247.18195"
       sodipodi:r1="1.2612166"
       sodipodi:r2="0.63060826"
       sodipodi:arg1="0"
       sodipodi:arg2="0.62831853"
       inkscape:flatsided="false"
       inkscape:rounded="0"
       inkscape:randomized="0"
       d="m 83.870904,247.18195 -0.751043,0.37066 -0.120436,0.82882 -0.584606,-0.59974 -0.825477,0.14158 0.389738,-0.74132 -0.389738,-0.74133 0.825477,0.14158 0.584606,-0.59974 0.120436,0.82882 z"
       inkscape:transform-center-x="-0.12043442"
       inkscape:transform-center-y="-2.0180403e-06" />
    <path
       sodipodi:type="star"
       style="opacity:1;fill:#d4aa00;fill-opacity:1;stroke-width:0.26458332"
       id="path885"
       sodipodi:sides="5"
       sodipodi:cx="86.078033"
       sodipodi:cy="214.39032"
       sodipodi:r1="1.9179202"
       sodipodi:r2="0.95896006"
       sodipodi:arg1="0.16514868"
       sodipodi:arg2="0.79346721"
       inkscape:flatsided="false"
       inkscape:rounded="0"
       inkscape:randomized="0"
       d="m 87.969858,214.70562 -1.219231,0.36824 -0.38786,1.21313 -0.726973,-1.04577 -1.27361,0.006 0.769937,-1.01455 -0.399275,-1.20942 1.20282,0.41874 1.026846,-0.75347 -0.02655,1.27335 z"
       inkscape:transform-center-x="-0.087986551"
       inkscape:transform-center-y="0.097432732" />
    <path
       sodipodi:type="star"
       style="opacity:1;fill:#ffff00;fill-opacity:1;stroke-width:0.26458332"
       id="path887"
       sodipodi:sides="5"
       sodipodi:cx="122.33801"
       sodipodi:cy="203.03937"
       sodipodi:r1="3.3517289"
       sodipodi:r2="1.6758645"
       sodipodi:arg1="-0.85196633"
       sodipodi:arg2="-0.2236478"
       inkscape:flatsided="false"
       inkscape:rounded="0"
       inkscape:randomized="0"
       d="m 124.54514,200.51693 -0.573,2.15075 1.44689,1.69132 -2.22255,0.11966 -1.16142,1.89872 -0.80061,-2.0768 -2.16469,-0.51784 1.72774,-1.40319 -0.17642,-2.21876 1.86841,1.20957 z"
       inkscape:transform-center-x="0.093620052"
       inkscape:transform-center-y="0.22971355" />
  </g>
</svg>
